<svg width="327" height="105" viewBox="0 0 327 105" fill="none" xmlns="http://www.w3.org/2000/svg">
<path d="M31.464 77.512C28.904 77.512 26.9307 76.7973 25.544 75.368C24.1787 73.9387 23.496 71.88 23.496 69.192V49.352H19.592C19.2507 49.352 18.9627 49.256 18.728 49.064C18.4933 48.8507 18.376 48.5307 18.376 48.104V45.832L23.688 45.16L25 35.144C25.064 34.824 25.2027 34.568 25.416 34.376C25.6507 34.1627 25.9493 34.056 26.312 34.056H29.192V45.224H38.568V49.352H29.192V68.808C29.192 70.1733 29.5227 71.1867 30.184 71.848C30.8453 72.5093 31.6987 72.84 32.744 72.84C33.3413 72.84 33.8533 72.7653 34.28 72.616C34.728 72.4453 35.112 72.264 35.432 72.072C35.752 71.88 36.0187 71.7093 36.232 71.56C36.4667 71.3893 36.6693 71.304 36.84 71.304C37.1387 71.304 37.4053 71.4853 37.64 71.848L39.304 74.568C38.3227 75.4853 37.1387 76.2107 35.752 76.744C34.3653 77.256 32.936 77.512 31.464 77.512ZM71.1055 44.584V77H67.7135C66.9028 77 66.3908 76.6053 66.1775 75.816L65.7295 72.328C64.3215 73.8853 62.7428 75.144 60.9935 76.104C59.2442 77.0427 57.2388 77.512 54.9775 77.512C53.2068 77.512 51.6388 77.224 50.2735 76.648C48.9295 76.0507 47.7988 75.2187 46.8815 74.152C45.9642 73.0853 45.2708 71.7947 44.8015 70.28C44.3535 68.7653 44.1295 67.0907 44.1295 65.256V44.584H49.8255V65.256C49.8255 67.7093 50.3802 69.608 51.4895 70.952C52.6202 72.296 54.3375 72.968 56.6415 72.968C58.3268 72.968 59.8948 72.5733 61.3455 71.784C62.8175 70.9733 64.1722 69.864 65.4095 68.456V44.584H71.1055ZM101.257 52.296C100.19 50.8667 99.0383 49.8747 97.801 49.32C96.5637 48.744 95.177 48.456 93.641 48.456C90.633 48.456 88.3183 49.5333 86.697 51.688C85.0757 53.8427 84.265 56.9147 84.265 60.904C84.265 63.016 84.4463 64.8293 84.809 66.344C85.1717 67.8373 85.705 69.0747 86.409 70.056C87.113 71.016 87.977 71.72 89.001 72.168C90.025 72.616 91.1877 72.84 92.489 72.84C94.3663 72.84 95.9983 72.4133 97.385 71.56C98.793 70.7067 100.084 69.5013 101.257 67.944V52.296ZM106.953 29.864V77H103.561C102.75 77 102.238 76.6053 102.025 75.816L101.513 71.88C100.126 73.544 98.5477 74.888 96.777 75.912C95.0063 76.936 92.9583 77.448 90.633 77.448C88.777 77.448 87.0917 77.096 85.577 76.392C84.0623 75.6667 82.7717 74.6107 81.705 73.224C80.6383 71.8373 79.817 70.1093 79.241 68.04C78.665 65.9707 78.377 63.592 78.377 60.904C78.377 58.5147 78.697 56.296 79.337 54.248C79.977 52.1787 80.8943 50.3867 82.089 48.872C83.2837 47.3573 84.745 46.1733 86.473 45.32C88.2223 44.4453 90.185 44.008 92.361 44.008C94.345 44.008 96.041 44.3493 97.449 45.032C98.8783 45.6933 100.148 46.6213 101.257 47.816V29.864H106.953ZM129.614 44.072C131.982 44.072 134.115 44.4667 136.014 45.256C137.912 46.0453 139.534 47.1653 140.878 48.616C142.222 50.0667 143.246 51.8267 143.95 53.896C144.675 55.944 145.038 58.2373 145.038 60.776C145.038 63.336 144.675 65.64 143.95 67.688C143.246 69.736 142.222 71.4853 140.878 72.936C139.534 74.3867 137.912 75.5067 136.014 76.296C134.115 77.064 131.982 77.448 129.614 77.448C127.224 77.448 125.07 77.064 123.15 76.296C121.251 75.5067 119.63 74.3867 118.286 72.936C116.942 71.4853 115.907 69.736 115.182 67.688C114.478 65.64 114.126 63.336 114.126 60.776C114.126 58.2373 114.478 55.944 115.182 53.896C115.907 51.8267 116.942 50.0667 118.286 48.616C119.63 47.1653 121.251 46.0453 123.15 45.256C125.07 44.4667 127.224 44.072 129.614 44.072ZM129.614 73C132.814 73 135.203 71.9333 136.782 69.8C138.36 67.6453 139.15 64.648 139.15 60.808C139.15 56.9467 138.36 53.9387 136.782 51.784C135.203 49.6293 132.814 48.552 129.614 48.552C127.992 48.552 126.574 48.8293 125.358 49.384C124.163 49.9387 123.16 50.7387 122.35 51.784C121.56 52.8293 120.963 54.12 120.558 55.656C120.174 57.1707 119.982 58.888 119.982 60.808C119.982 64.648 120.771 67.6453 122.35 69.8C123.95 71.9333 126.371 73 129.614 73ZM182.301 44.072C184.669 44.072 186.802 44.4667 188.701 45.256C190.6 46.0453 192.221 47.1653 193.565 48.616C194.909 50.0667 195.933 51.8267 196.637 53.896C197.362 55.944 197.725 58.2373 197.725 60.776C197.725 63.336 197.362 65.64 196.637 67.688C195.933 69.736 194.909 71.4853 193.565 72.936C192.221 74.3867 190.6 75.5067 188.701 76.296C186.802 77.064 184.669 77.448 182.301 77.448C179.912 77.448 177.757 77.064 175.837 76.296C173.938 75.5067 172.317 74.3867 170.973 72.936C169.629 71.4853 168.594 69.736 167.869 67.688C167.165 65.64 166.813 63.336 166.813 60.776C166.813 58.2373 167.165 55.944 167.869 53.896C168.594 51.8267 169.629 50.0667 170.973 48.616C172.317 47.1653 173.938 46.0453 175.837 45.256C177.757 44.4667 179.912 44.072 182.301 44.072ZM182.301 73C185.501 73 187.89 71.9333 189.469 69.8C191.048 67.6453 191.837 64.648 191.837 60.808C191.837 56.9467 191.048 53.9387 189.469 51.784C187.89 49.6293 185.501 48.552 182.301 48.552C180.68 48.552 179.261 48.8293 178.045 49.384C176.85 49.9387 175.848 50.7387 175.037 51.784C174.248 52.8293 173.65 54.12 173.245 55.656C172.861 57.1707 172.669 58.888 172.669 60.808C172.669 64.648 173.458 67.6453 175.037 69.8C176.637 71.9333 179.058 73 182.301 73ZM210.326 49.288C211.03 48.4987 211.776 47.784 212.566 47.144C213.355 46.504 214.187 45.96 215.062 45.512C215.958 45.0427 216.896 44.6907 217.878 44.456C218.88 44.2 219.958 44.072 221.11 44.072C222.88 44.072 224.438 44.3707 225.782 44.968C227.147 45.544 228.278 46.376 229.174 47.464C230.091 48.5307 230.784 49.8213 231.254 51.336C231.723 52.8507 231.958 54.5253 231.958 56.36V77H226.23V56.36C226.23 53.9067 225.664 52.008 224.534 50.664C223.424 49.2987 221.728 48.616 219.446 48.616C217.76 48.616 216.182 49.0213 214.71 49.832C213.259 50.6427 211.915 51.7413 210.678 53.128V77H204.95V44.584H208.374C209.184 44.584 209.686 44.9787 209.878 45.768L210.326 49.288Z" fill="black"/>
<path d="M263.912 42.8443V46.3803H297.504V53.3799L293.581 65.8283H262.799L258.379 34H248V37.536H255.301L259.721 69.3643H296.174L301.04 53.9238V42.8443H263.912Z" fill="black"/>
<path d="M265.789 72.934C263.914 72.9361 262.116 73.6819 260.79 75.0077C259.465 76.3335 258.719 78.1311 258.717 80.006V80.006C258.717 81.8816 259.462 83.6804 260.788 85.0067C262.114 86.3329 263.913 87.078 265.789 87.078C267.664 87.078 269.463 86.3329 270.789 85.0067C272.116 83.6804 272.861 81.8816 272.861 80.006V80.006C272.859 78.131 272.113 76.3335 270.787 75.0077C269.461 73.6819 267.664 72.9361 265.789 72.934V72.934ZM265.789 83.542C265.089 83.542 264.406 83.3346 263.824 82.9461C263.243 82.5575 262.79 82.0053 262.522 81.3592C262.254 80.7131 262.184 80.0021 262.321 79.3162C262.457 78.6302 262.794 78.0002 263.288 77.5057C263.783 77.0112 264.413 76.6744 265.099 76.5379C265.785 76.4015 266.496 76.4715 267.142 76.7392C267.788 77.0068 268.34 77.46 268.729 78.0415C269.117 78.623 269.325 79.3067 269.325 80.006C269.324 80.9435 268.951 81.8422 268.288 82.5051C267.625 83.168 266.726 83.5409 265.789 83.542V83.542Z" fill="black"/>
<path d="M290.541 72.934C288.666 72.9361 286.868 73.6819 285.542 75.0077C284.217 76.3335 283.471 78.1311 283.469 80.006C283.469 81.8816 284.214 83.6804 285.54 85.0067C286.866 86.3329 288.665 87.078 290.541 87.078C292.416 87.078 294.215 86.3329 295.541 85.0067C296.868 83.6804 297.613 81.8816 297.613 80.006C297.611 78.131 296.865 76.3335 295.539 75.0077C294.213 73.6819 292.416 72.9361 290.541 72.934V72.934ZM290.541 83.542C289.841 83.542 289.158 83.3346 288.576 82.9461C287.995 82.5575 287.542 82.0053 287.274 81.3592C287.006 80.7131 286.936 80.0021 287.073 79.3162C287.209 78.6302 287.546 78.0002 288.04 77.5057C288.535 77.0112 289.165 76.6744 289.851 76.5379C290.537 76.4015 291.248 76.4715 291.894 76.7392C292.54 77.0068 293.092 77.46 293.481 78.0415C293.869 78.623 294.077 79.3067 294.077 80.006C294.076 80.9435 293.703 81.8422 293.04 82.5051C292.377 83.168 291.478 83.5409 290.541 83.542V83.542Z" fill="black"/>
</svg>
