<svg width="332" height="97" viewBox="0 0 332 97" fill="none" xmlns="http://www.w3.org/2000/svg">
<path d="M14.464 76.512C11.904 76.512 9.93067 75.7973 8.544 74.368C7.17867 72.9387 6.496 70.88 6.496 68.192V48.352H2.592C2.25067 48.352 1.96267 48.256 1.728 48.064C1.49333 47.8507 1.376 47.5307 1.376 47.104V44.832L6.688 44.16L8 34.144C8.064 33.824 8.20267 33.568 8.416 33.376C8.65067 33.1627 8.94933 33.056 9.312 33.056H12.192V44.224H21.568V48.352H12.192V67.808C12.192 69.1733 12.5227 70.1867 13.184 70.848C13.8453 71.5093 14.6987 71.84 15.744 71.84C16.3413 71.84 16.8533 71.7653 17.28 71.616C17.728 71.4453 18.112 71.264 18.432 71.072C18.752 70.88 19.0187 70.7093 19.232 70.56C19.4667 70.3893 19.6693 70.304 19.84 70.304C20.1387 70.304 20.4053 70.4853 20.64 70.848L22.304 73.568C21.3227 74.4853 20.1387 75.2107 18.752 75.744C17.3653 76.256 15.936 76.512 14.464 76.512ZM54.1055 43.584V76H50.7135C49.9028 76 49.3908 75.6053 49.1775 74.816L48.7295 71.328C47.3215 72.8853 45.7428 74.144 43.9935 75.104C42.2442 76.0427 40.2388 76.512 37.9775 76.512C36.2068 76.512 34.6388 76.224 33.2735 75.648C31.9295 75.0507 30.7988 74.2187 29.8815 73.152C28.9642 72.0853 28.2708 70.7947 27.8015 69.28C27.3535 67.7653 27.1295 66.0907 27.1295 64.256V43.584H32.8255V64.256C32.8255 66.7093 33.3802 68.608 34.4895 69.952C35.6202 71.296 37.3375 71.968 39.6415 71.968C41.3268 71.968 42.8948 71.5733 44.3455 70.784C45.8175 69.9733 47.1722 68.864 48.4095 67.456V43.584H54.1055ZM84.257 51.296C83.1903 49.8667 82.0383 48.8747 80.801 48.32C79.5637 47.744 78.177 47.456 76.641 47.456C73.633 47.456 71.3183 48.5333 69.697 50.688C68.0757 52.8427 67.265 55.9147 67.265 59.904C67.265 62.016 67.4463 63.8293 67.809 65.344C68.1717 66.8373 68.705 68.0747 69.409 69.056C70.113 70.016 70.977 70.72 72.001 71.168C73.025 71.616 74.1877 71.84 75.489 71.84C77.3663 71.84 78.9983 71.4133 80.385 70.56C81.793 69.7067 83.0837 68.5013 84.257 66.944V51.296ZM89.953 28.864V76H86.561C85.7503 76 85.2383 75.6053 85.025 74.816L84.513 70.88C83.1263 72.544 81.5477 73.888 79.777 74.912C78.0063 75.936 75.9583 76.448 73.633 76.448C71.777 76.448 70.0917 76.096 68.577 75.392C67.0623 74.6667 65.7717 73.6107 64.705 72.224C63.6383 70.8373 62.817 69.1093 62.241 67.04C61.665 64.9707 61.377 62.592 61.377 59.904C61.377 57.5147 61.697 55.296 62.337 53.248C62.977 51.1787 63.8943 49.3867 65.089 47.872C66.2837 46.3573 67.745 45.1733 69.473 44.32C71.2223 43.4453 73.185 43.008 75.361 43.008C77.345 43.008 79.041 43.3493 80.449 44.032C81.8783 44.6933 83.1477 45.6213 84.257 46.816V28.864H89.953ZM112.614 43.072C114.982 43.072 117.115 43.4667 119.014 44.256C120.912 45.0453 122.534 46.1653 123.878 47.616C125.222 49.0667 126.246 50.8267 126.95 52.896C127.675 54.944 128.038 57.2373 128.038 59.776C128.038 62.336 127.675 64.64 126.95 66.688C126.246 68.736 125.222 70.4853 123.878 71.936C122.534 73.3867 120.912 74.5067 119.014 75.296C117.115 76.064 114.982 76.448 112.614 76.448C110.224 76.448 108.07 76.064 106.15 75.296C104.251 74.5067 102.63 73.3867 101.286 71.936C99.9415 70.4853 98.9068 68.736 98.1815 66.688C97.4775 64.64 97.1255 62.336 97.1255 59.776C97.1255 57.2373 97.4775 54.944 98.1815 52.896C98.9068 50.8267 99.9415 49.0667 101.286 47.616C102.63 46.1653 104.251 45.0453 106.15 44.256C108.07 43.4667 110.224 43.072 112.614 43.072ZM112.614 72C115.814 72 118.203 70.9333 119.782 68.8C121.36 66.6453 122.15 63.648 122.15 59.808C122.15 55.9467 121.36 52.9387 119.782 50.784C118.203 48.6293 115.814 47.552 112.614 47.552C110.992 47.552 109.574 47.8293 108.358 48.384C107.163 48.9387 106.16 49.7387 105.35 50.784C104.56 51.8293 103.963 53.12 103.558 54.656C103.174 56.1707 102.982 57.888 102.982 59.808C102.982 63.648 103.771 66.6453 105.35 68.8C106.95 70.9333 109.371 72 112.614 72ZM177.851 43.584L164.635 76H159.515L146.299 43.584H150.939C151.408 43.584 151.792 43.7013 152.091 43.936C152.389 44.1707 152.592 44.448 152.699 44.768L160.923 65.632C161.179 66.4213 161.403 67.1893 161.595 67.936C161.787 68.6827 161.968 69.4293 162.139 70.176C162.309 69.4293 162.491 68.6827 162.683 67.936C162.875 67.1893 163.109 66.4213 163.387 65.632L171.707 44.768C171.835 44.4267 172.048 44.1493 172.347 43.936C172.645 43.7013 172.997 43.584 173.403 43.584H177.851ZM199.955 61.408C197.331 61.4933 195.091 61.7067 193.235 62.048C191.4 62.368 189.896 62.7947 188.723 63.328C187.571 63.8613 186.728 64.4907 186.195 65.216C185.683 65.9413 185.427 66.752 185.427 67.648C185.427 68.5013 185.566 69.2373 185.843 69.856C186.12 70.4747 186.494 70.9867 186.963 71.392C187.454 71.776 188.019 72.064 188.659 72.256C189.32 72.4267 190.024 72.512 190.771 72.512C191.774 72.512 192.691 72.416 193.523 72.224C194.355 72.0107 195.134 71.712 195.859 71.328C196.606 70.944 197.31 70.4853 197.971 69.952C198.654 69.4187 199.315 68.8107 199.955 68.128V61.408ZM181.555 48.16C183.347 46.432 185.278 45.1413 187.347 44.288C189.416 43.4347 191.71 43.008 194.227 43.008C196.04 43.008 197.651 43.3067 199.059 43.904C200.467 44.5013 201.651 45.3333 202.611 46.4C203.571 47.4667 204.296 48.7573 204.787 50.272C205.278 51.7867 205.523 53.4507 205.523 55.264V76H202.995C202.44 76 202.014 75.9147 201.715 75.744C201.416 75.552 201.182 75.1893 201.011 74.656L200.371 71.584C199.518 72.3733 198.686 73.0773 197.875 73.696C197.064 74.2933 196.211 74.8053 195.315 75.232C194.419 75.6373 193.459 75.9467 192.435 76.16C191.432 76.3947 190.312 76.512 189.075 76.512C187.816 76.512 186.632 76.3413 185.523 76C184.414 75.6373 183.443 75.104 182.611 74.4C181.8 73.696 181.15 72.8107 180.659 71.744C180.19 70.656 179.955 69.376 179.955 67.904C179.955 66.624 180.307 65.3973 181.011 64.224C181.715 63.0293 182.856 61.9733 184.435 61.056C186.014 60.1387 188.072 59.392 190.611 58.816C193.15 58.2187 196.264 57.8773 199.955 57.792V55.264C199.955 52.7467 199.411 50.848 198.323 49.568C197.235 48.2667 195.646 47.616 193.555 47.616C192.147 47.616 190.963 47.7973 190.003 48.16C189.064 48.5013 188.243 48.896 187.539 49.344C186.856 49.7707 186.259 50.1653 185.747 50.528C185.256 50.8693 184.766 51.04 184.275 51.04C183.891 51.04 183.56 50.944 183.283 50.752C183.006 50.5387 182.771 50.2827 182.579 49.984L181.555 48.16ZM219.608 50.08C220.632 47.8613 221.89 46.1333 223.384 44.896C224.877 43.6373 226.701 43.008 228.856 43.008C229.538 43.008 230.189 43.0827 230.808 43.232C231.448 43.3813 232.013 43.616 232.504 43.936L232.088 48.192C231.96 48.7253 231.64 48.992 231.128 48.992C230.829 48.992 230.392 48.928 229.816 48.8C229.24 48.672 228.589 48.608 227.864 48.608C226.84 48.608 225.922 48.7573 225.112 49.056C224.322 49.3547 223.608 49.8027 222.968 50.4C222.349 50.976 221.784 51.7013 221.272 52.576C220.781 53.4293 220.333 54.4107 219.928 55.52V76H214.2V43.584H217.464C218.082 43.584 218.509 43.7013 218.744 43.936C218.978 44.1707 219.138 44.576 219.224 45.152L219.608 50.08Z" fill="white"/>
<path d="M268.912 39.58V42.8466H302.504V49.3129L298.581 60.8128H267.799L263.379 31.4095H253V34.6761H260.301L264.721 64.0794H301.174L306.04 49.8153V39.58H268.912Z" fill="white"/>
<path d="M270.789 67.3771C268.914 67.3791 267.116 68.0681 265.79 69.2928C264.465 70.5176 263.719 72.1782 263.717 73.9103C263.717 75.643 264.462 77.3048 265.788 78.53C267.114 79.7552 268.913 80.4435 270.789 80.4435C272.664 80.4435 274.463 79.7552 275.789 78.53C277.116 77.3048 277.861 75.643 277.861 73.9103C277.859 72.1782 277.113 70.5176 275.787 69.2928C274.461 68.068 272.664 67.3791 270.789 67.3771ZM270.789 77.1769C270.089 77.1769 269.406 76.9853 268.824 76.6264C268.243 76.2675 267.79 75.7573 267.522 75.1604C267.254 74.5635 267.184 73.9067 267.321 73.273C267.457 72.6394 267.794 72.0573 268.288 71.6005C268.783 71.1436 269.413 70.8325 270.099 70.7065C270.785 70.5805 271.496 70.6451 272.142 70.8924C272.788 71.1396 273.34 71.5583 273.729 72.0955C274.117 72.6327 274.325 73.2642 274.325 73.9103C274.324 74.7764 273.951 75.6066 273.288 76.219C272.625 76.8314 271.726 77.1759 270.789 77.1769Z" fill="white"/>
<path d="M295.541 67.3771C293.666 67.3791 291.868 68.0681 290.542 69.2928C289.217 70.5176 288.471 72.1782 288.469 73.9103C288.469 75.643 289.214 77.3048 290.54 78.53C291.866 79.7552 293.665 80.4435 295.541 80.4435C297.416 80.4435 299.215 79.7552 300.541 78.53C301.868 77.3048 302.613 75.643 302.613 73.9103C302.611 72.1782 301.865 70.5176 300.539 69.2928C299.213 68.068 297.416 67.3791 295.541 67.3771ZM295.541 77.1769C294.841 77.1769 294.158 76.9853 293.576 76.6264C292.995 76.2675 292.542 75.7573 292.274 75.1604C292.006 74.5635 291.936 73.9067 292.073 73.273C292.209 72.6394 292.546 72.0573 293.04 71.6005C293.535 71.1436 294.165 70.8325 294.851 70.7065C295.537 70.5805 296.248 70.6451 296.894 70.8924C297.54 71.1396 298.092 71.5583 298.481 72.0955C298.869 72.6327 299.077 73.2642 299.077 73.9103C299.076 74.7764 298.703 75.6066 298.04 76.219C297.377 76.8314 296.478 77.1759 295.541 77.1769Z" fill="white"/>
</svg>
